<mxfile host="app.diagrams.net" modified="2020-12-04T04:25:52.297Z" agent="5.0 (Windows NT 10.0; Win64; x64) AppleWebKit/537.36 (KHTML, like Gecko) Chrome/86.0.4240.75 Safari/537.36" etag="uSjJhGmS1BUdyT481ZPN" version="13.10.6" type="github">
  <diagram id="9yFVqNlwCsdv33wXGpsy" name="第 1 页">
    <mxGraphModel dx="782" dy="437" grid="1" gridSize="10" guides="1" tooltips="1" connect="1" arrows="1" fold="1" page="1" pageScale="1" pageWidth="1600" pageHeight="900" math="0" shadow="0">
      <root>
        <mxCell id="0" />
        <mxCell id="1" parent="0" />
        <mxCell id="VTMaBM5SVqlO5lvaNQLv-6" style="edgeStyle=orthogonalEdgeStyle;curved=1;rounded=0;orthogonalLoop=1;jettySize=auto;html=1;entryX=0;entryY=0.5;entryDx=0;entryDy=0;" edge="1" parent="1" source="VTMaBM5SVqlO5lvaNQLv-1" target="VTMaBM5SVqlO5lvaNQLv-2">
          <mxGeometry relative="1" as="geometry">
            <Array as="points">
              <mxPoint x="130" y="111" />
            </Array>
          </mxGeometry>
        </mxCell>
        <mxCell id="VTMaBM5SVqlO5lvaNQLv-7" value="replicate" style="edgeLabel;html=1;align=center;verticalAlign=middle;resizable=0;points=[];" vertex="1" connectable="0" parent="VTMaBM5SVqlO5lvaNQLv-6">
          <mxGeometry x="0.0549" y="-12" relative="1" as="geometry">
            <mxPoint as="offset" />
          </mxGeometry>
        </mxCell>
        <mxCell id="VTMaBM5SVqlO5lvaNQLv-8" style="edgeStyle=orthogonalEdgeStyle;curved=1;rounded=0;orthogonalLoop=1;jettySize=auto;html=1;entryX=0;entryY=0.5;entryDx=0;entryDy=0;" edge="1" parent="1" source="VTMaBM5SVqlO5lvaNQLv-1" target="VTMaBM5SVqlO5lvaNQLv-4">
          <mxGeometry relative="1" as="geometry">
            <Array as="points">
              <mxPoint x="130" y="321" />
            </Array>
          </mxGeometry>
        </mxCell>
        <mxCell id="VTMaBM5SVqlO5lvaNQLv-9" value="replicate" style="edgeLabel;html=1;align=center;verticalAlign=middle;resizable=0;points=[];" vertex="1" connectable="0" parent="VTMaBM5SVqlO5lvaNQLv-8">
          <mxGeometry x="0.0741" y="18" relative="1" as="geometry">
            <mxPoint as="offset" />
          </mxGeometry>
        </mxCell>
        <mxCell id="VTMaBM5SVqlO5lvaNQLv-1" value="Master" style="ellipse;whiteSpace=wrap;html=1;aspect=fixed;fillColor=#f8cecc;strokeColor=#b85450;" vertex="1" parent="1">
          <mxGeometry x="90" y="171" width="80" height="80" as="geometry" />
        </mxCell>
        <mxCell id="VTMaBM5SVqlO5lvaNQLv-10" value="replicate" style="edgeStyle=orthogonalEdgeStyle;curved=1;rounded=0;orthogonalLoop=1;jettySize=auto;html=1;" edge="1" parent="1" source="VTMaBM5SVqlO5lvaNQLv-2" target="VTMaBM5SVqlO5lvaNQLv-3">
          <mxGeometry relative="1" as="geometry" />
        </mxCell>
        <mxCell id="VTMaBM5SVqlO5lvaNQLv-2" value="Slaver" style="ellipse;whiteSpace=wrap;html=1;aspect=fixed;fillColor=#fff2cc;strokeColor=#d6b656;" vertex="1" parent="1">
          <mxGeometry x="240" y="71" width="80" height="80" as="geometry" />
        </mxCell>
        <mxCell id="VTMaBM5SVqlO5lvaNQLv-3" value="Slaver" style="ellipse;whiteSpace=wrap;html=1;aspect=fixed;fillColor=#fff2cc;strokeColor=#d6b656;" vertex="1" parent="1">
          <mxGeometry x="440" y="71" width="80" height="80" as="geometry" />
        </mxCell>
        <mxCell id="VTMaBM5SVqlO5lvaNQLv-11" value="replicate" style="edgeStyle=orthogonalEdgeStyle;curved=1;rounded=0;orthogonalLoop=1;jettySize=auto;html=1;" edge="1" parent="1" source="VTMaBM5SVqlO5lvaNQLv-4" target="VTMaBM5SVqlO5lvaNQLv-5">
          <mxGeometry relative="1" as="geometry" />
        </mxCell>
        <mxCell id="VTMaBM5SVqlO5lvaNQLv-4" value="Slaver" style="ellipse;whiteSpace=wrap;html=1;aspect=fixed;fillColor=#fff2cc;strokeColor=#d6b656;" vertex="1" parent="1">
          <mxGeometry x="240" y="281" width="80" height="80" as="geometry" />
        </mxCell>
        <mxCell id="VTMaBM5SVqlO5lvaNQLv-5" value="Slaver" style="ellipse;whiteSpace=wrap;html=1;aspect=fixed;fillColor=#fff2cc;strokeColor=#d6b656;" vertex="1" parent="1">
          <mxGeometry x="440" y="281" width="80" height="80" as="geometry" />
        </mxCell>
        <mxCell id="VTMaBM5SVqlO5lvaNQLv-15" value="&lt;font style=&quot;font-size: 18px&quot;&gt;redis主从同步与从从同步&lt;/font&gt;" style="text;html=1;align=center;verticalAlign=middle;resizable=0;points=[];autosize=1;" vertex="1" parent="1">
          <mxGeometry x="230" y="40" width="220" height="20" as="geometry" />
        </mxCell>
      </root>
    </mxGraphModel>
  </diagram>
</mxfile>
